# xmcd
#
# Track frame offsets:
#	200
#	15870
#	32572
#	48710
#	61880
#	75442
#
# Disc length: 1191 seconds
#
# Revision: 1
# Processed by: cddbd v1.5.1PL0 Copyright (c) Steve Scherf et al.
# Submitted via: audiograbber 1.82.02
#
DISCID=3904a506
DTITLE=Various Artist - Curb Country `91 (Promotion Only)
DYEAR=1991
DGENRE=Country
TTITLE0=Chris Hillman and The Desert Rose Band - Will This Be The Day
TTITLE1=Marie Osmond - Think With Your Heart
TTITLE2=Tony Toliver - Barstool Fool
TTITLE3=Becky Hobbs - Talk Back Trembling Lips
TTITLE4=Merle Haggard - A Bar In Bakersfield
TTITLE5=Bill Anderson - Deck Of Cards
EXTD=
EXTT0=
EXTT1=
EXTT2=
EXTT3=
EXTT4=
EXTT5=
PLAYORDER=
